<mxfile host="Electron" agent="Mozilla/5.0 (X11; Linux x86_64) AppleWebKit/537.36 (KHTML, like Gecko) draw.io/26.0.9 Chrome/128.0.6613.186 Electron/32.2.5 Safari/537.36" version="26.0.9">
  <diagram name="Trang-1" id="-M_bsbVaFoXRwhrimkG6">
    <mxGraphModel dx="1839" dy="1678" grid="1" gridSize="10" guides="1" tooltips="1" connect="1" arrows="1" fold="1" page="1" pageScale="1" pageWidth="850" pageHeight="1100" math="0" shadow="0">
      <root>
        <mxCell id="0" />
        <mxCell id="1" parent="0" />
        <mxCell id="4fdTVYNe-CSdT98RPjfL-78" value="&lt;b&gt;&lt;font style=&quot;font-size: 19px;&quot;&gt;Admin &amp;amp; Moderation&lt;/font&gt;&lt;/b&gt;" style="rounded=0;whiteSpace=wrap;html=1;verticalAlign=top;fillColor=#dae8fc;strokeColor=#6c8ebf;" vertex="1" parent="1">
          <mxGeometry x="1213.64" y="120" width="325" height="910" as="geometry" />
        </mxCell>
        <mxCell id="4fdTVYNe-CSdT98RPjfL-67" value="&lt;b&gt;&lt;font style=&quot;font-size: 15px;&quot;&gt;System Administration&lt;/font&gt;&lt;/b&gt;" style="rounded=0;whiteSpace=wrap;html=1;verticalAlign=top;fillColor=#647687;fontColor=#ffffff;strokeColor=#314354;" vertex="1" parent="1">
          <mxGeometry x="1258.64" y="540" width="230" height="450" as="geometry" />
        </mxCell>
        <mxCell id="4fdTVYNe-CSdT98RPjfL-60" value="&lt;b&gt;&lt;font style=&quot;font-size: 15px;&quot;&gt;Content Moderation&lt;/font&gt;&lt;/b&gt;" style="rounded=0;whiteSpace=wrap;html=1;verticalAlign=top;fillColor=#1ba1e2;fontColor=#ffffff;strokeColor=#006EAF;" vertex="1" parent="1">
          <mxGeometry x="1258.64" y="180" width="230" height="310" as="geometry" />
        </mxCell>
        <mxCell id="4fdTVYNe-CSdT98RPjfL-50" value="&lt;font style=&quot;font-size: 19px;&quot;&gt;&lt;b style=&quot;&quot;&gt;End Users&lt;/b&gt;&lt;/font&gt;" style="rounded=0;whiteSpace=wrap;html=1;verticalAlign=top;fillColor=#d5e8d4;strokeColor=#82b366;" vertex="1" parent="1">
          <mxGeometry x="-100" y="-20" width="430" height="1140" as="geometry" />
        </mxCell>
        <mxCell id="4fdTVYNe-CSdT98RPjfL-49" value="&lt;b&gt;&lt;font style=&quot;font-size: 19px;&quot;&gt;Base Access Layer&lt;/font&gt;&lt;/b&gt;" style="rounded=0;whiteSpace=wrap;html=1;verticalAlign=top;fillColor=#f5f5f5;fontColor=#333333;strokeColor=#666666;" vertex="1" parent="1">
          <mxGeometry x="660" y="110" width="390" height="800" as="geometry" />
        </mxCell>
        <mxCell id="4fdTVYNe-CSdT98RPjfL-32" value="&lt;b&gt;&lt;font style=&quot;font-size: 15px;&quot;&gt;Recruitment Management&lt;/font&gt;&lt;/b&gt;" style="rounded=0;whiteSpace=wrap;html=1;verticalAlign=top;fillColor=#f0a30a;fontColor=#000000;strokeColor=#BD7000;" vertex="1" parent="1">
          <mxGeometry x="-40" y="630" width="290" height="470" as="geometry" />
        </mxCell>
        <mxCell id="4fdTVYNe-CSdT98RPjfL-12" value="&lt;strong data-end=&quot;756&quot; data-start=&quot;728&quot;&gt;&lt;font style=&quot;font-size: 15px;&quot;&gt;Job Seeking&lt;/font&gt;&lt;/strong&gt;" style="rounded=0;whiteSpace=wrap;html=1;verticalAlign=top;fillColor=#e3c800;fontColor=#000000;strokeColor=#B09500;" vertex="1" parent="1">
          <mxGeometry x="-40" y="20" width="290" height="590" as="geometry" />
        </mxCell>
        <mxCell id="4fdTVYNe-CSdT98RPjfL-58" style="rounded=0;orthogonalLoop=1;jettySize=auto;html=1;entryX=1;entryY=0.5;entryDx=0;entryDy=0;dashed=1;endArrow=block;endFill=0;" edge="1" parent="1" source="uC6NLwm2nUMS7Do129K8-1" target="4fdTVYNe-CSdT98RPjfL-49">
          <mxGeometry relative="1" as="geometry" />
        </mxCell>
        <mxCell id="4fdTVYNe-CSdT98RPjfL-59" value="&amp;lt;&amp;lt;extends&amp;gt;&amp;gt;" style="edgeLabel;html=1;align=center;verticalAlign=middle;resizable=0;points=[];" vertex="1" connectable="0" parent="4fdTVYNe-CSdT98RPjfL-58">
          <mxGeometry x="-0.0145" relative="1" as="geometry">
            <mxPoint as="offset" />
          </mxGeometry>
        </mxCell>
        <mxCell id="4fdTVYNe-CSdT98RPjfL-73" style="rounded=0;orthogonalLoop=1;jettySize=auto;html=1;endArrow=none;startFill=0;" edge="1" parent="1" source="uC6NLwm2nUMS7Do129K8-1" target="4fdTVYNe-CSdT98RPjfL-70">
          <mxGeometry relative="1" as="geometry" />
        </mxCell>
        <mxCell id="4fdTVYNe-CSdT98RPjfL-74" style="rounded=0;orthogonalLoop=1;jettySize=auto;html=1;entryX=0;entryY=0.5;entryDx=0;entryDy=0;endArrow=none;startFill=0;" edge="1" parent="1" source="uC6NLwm2nUMS7Do129K8-1" target="4fdTVYNe-CSdT98RPjfL-69">
          <mxGeometry relative="1" as="geometry" />
        </mxCell>
        <mxCell id="4fdTVYNe-CSdT98RPjfL-75" style="rounded=0;orthogonalLoop=1;jettySize=auto;html=1;entryX=0;entryY=0.5;entryDx=0;entryDy=0;endArrow=none;startFill=0;" edge="1" parent="1" source="uC6NLwm2nUMS7Do129K8-1" target="4fdTVYNe-CSdT98RPjfL-71">
          <mxGeometry relative="1" as="geometry" />
        </mxCell>
        <mxCell id="4fdTVYNe-CSdT98RPjfL-76" style="rounded=0;orthogonalLoop=1;jettySize=auto;html=1;entryX=0;entryY=0.5;entryDx=0;entryDy=0;endArrow=none;startFill=0;" edge="1" parent="1" source="uC6NLwm2nUMS7Do129K8-1" target="4fdTVYNe-CSdT98RPjfL-72">
          <mxGeometry relative="1" as="geometry" />
        </mxCell>
        <mxCell id="4fdTVYNe-CSdT98RPjfL-77" style="rounded=0;orthogonalLoop=1;jettySize=auto;html=1;entryX=0;entryY=0.5;entryDx=0;entryDy=0;endArrow=none;startFill=0;" edge="1" parent="1" source="uC6NLwm2nUMS7Do129K8-1" target="4fdTVYNe-CSdT98RPjfL-68">
          <mxGeometry relative="1" as="geometry" />
        </mxCell>
        <mxCell id="uC6NLwm2nUMS7Do129K8-1" value="Administrator" style="shape=umlActor;verticalLabelPosition=bottom;verticalAlign=top;html=1;" parent="1" vertex="1">
          <mxGeometry x="1118.64" y="740" width="30" height="60" as="geometry" />
        </mxCell>
        <mxCell id="uC6NLwm2nUMS7Do129K8-2" value="&lt;strong data-end=&quot;916&quot; data-start=&quot;899&quot;&gt;&lt;font style=&quot;font-size: 15px;&quot;&gt;Public Access&lt;/font&gt;&lt;/strong&gt;" style="rounded=0;whiteSpace=wrap;html=1;verticalAlign=top;fillColor=#60a917;fontColor=#ffffff;strokeColor=#2D7600;" parent="1" vertex="1">
          <mxGeometry x="710" y="150" width="290" height="360" as="geometry" />
        </mxCell>
        <mxCell id="jB2Ku8zgTPf261uYhost-14" style="rounded=0;orthogonalLoop=1;jettySize=auto;html=1;endArrow=none;startFill=0;" parent="1" source="jB2Ku8zgTPf261uYhost-1" target="jB2Ku8zgTPf261uYhost-10" edge="1">
          <mxGeometry relative="1" as="geometry" />
        </mxCell>
        <mxCell id="jB2Ku8zgTPf261uYhost-15" style="rounded=0;orthogonalLoop=1;jettySize=auto;html=1;endArrow=none;startFill=0;" parent="1" source="jB2Ku8zgTPf261uYhost-1" target="jB2Ku8zgTPf261uYhost-11" edge="1">
          <mxGeometry relative="1" as="geometry" />
        </mxCell>
        <mxCell id="jB2Ku8zgTPf261uYhost-17" style="rounded=0;orthogonalLoop=1;jettySize=auto;html=1;entryX=0;entryY=0.5;entryDx=0;entryDy=0;endArrow=none;startFill=0;" parent="1" source="jB2Ku8zgTPf261uYhost-1" target="jB2Ku8zgTPf261uYhost-12" edge="1">
          <mxGeometry relative="1" as="geometry" />
        </mxCell>
        <mxCell id="jB2Ku8zgTPf261uYhost-1" value="&lt;code data-end=&quot;552&quot; data-start=&quot;546&quot;&gt;Guest&lt;/code&gt;" style="shape=umlActor;verticalLabelPosition=bottom;verticalAlign=top;html=1;" parent="1" vertex="1">
          <mxGeometry x="590" y="270" width="30" height="60" as="geometry" />
        </mxCell>
        <mxCell id="4fdTVYNe-CSdT98RPjfL-23" style="rounded=0;orthogonalLoop=1;jettySize=auto;html=1;entryX=1;entryY=0.5;entryDx=0;entryDy=0;endArrow=none;startFill=0;" edge="1" parent="1" source="jB2Ku8zgTPf261uYhost-6" target="4fdTVYNe-CSdT98RPjfL-14">
          <mxGeometry relative="1" as="geometry" />
        </mxCell>
        <mxCell id="4fdTVYNe-CSdT98RPjfL-24" style="rounded=0;orthogonalLoop=1;jettySize=auto;html=1;entryX=1;entryY=0.5;entryDx=0;entryDy=0;endArrow=none;startFill=0;" edge="1" parent="1" source="jB2Ku8zgTPf261uYhost-6" target="4fdTVYNe-CSdT98RPjfL-16">
          <mxGeometry relative="1" as="geometry" />
        </mxCell>
        <mxCell id="4fdTVYNe-CSdT98RPjfL-26" style="rounded=0;orthogonalLoop=1;jettySize=auto;html=1;endArrow=none;startFill=0;" edge="1" parent="1" source="jB2Ku8zgTPf261uYhost-6" target="4fdTVYNe-CSdT98RPjfL-17">
          <mxGeometry relative="1" as="geometry" />
        </mxCell>
        <mxCell id="4fdTVYNe-CSdT98RPjfL-27" style="rounded=0;orthogonalLoop=1;jettySize=auto;html=1;entryX=1;entryY=0.5;entryDx=0;entryDy=0;endArrow=none;startFill=0;" edge="1" parent="1" source="jB2Ku8zgTPf261uYhost-6" target="4fdTVYNe-CSdT98RPjfL-18">
          <mxGeometry relative="1" as="geometry" />
        </mxCell>
        <mxCell id="4fdTVYNe-CSdT98RPjfL-28" style="rounded=0;orthogonalLoop=1;jettySize=auto;html=1;entryX=1;entryY=0.5;entryDx=0;entryDy=0;endArrow=none;startFill=0;" edge="1" parent="1" source="jB2Ku8zgTPf261uYhost-6" target="4fdTVYNe-CSdT98RPjfL-19">
          <mxGeometry relative="1" as="geometry" />
        </mxCell>
        <mxCell id="4fdTVYNe-CSdT98RPjfL-29" style="rounded=0;orthogonalLoop=1;jettySize=auto;html=1;entryX=1;entryY=0.5;entryDx=0;entryDy=0;endArrow=none;startFill=0;" edge="1" parent="1" source="jB2Ku8zgTPf261uYhost-6" target="4fdTVYNe-CSdT98RPjfL-20">
          <mxGeometry relative="1" as="geometry" />
        </mxCell>
        <mxCell id="4fdTVYNe-CSdT98RPjfL-51" style="rounded=0;orthogonalLoop=1;jettySize=auto;html=1;entryX=0;entryY=0.5;entryDx=0;entryDy=0;dashed=1;endArrow=block;endFill=0;" edge="1" parent="1" source="jB2Ku8zgTPf261uYhost-6" target="4fdTVYNe-CSdT98RPjfL-49">
          <mxGeometry relative="1" as="geometry" />
        </mxCell>
        <mxCell id="4fdTVYNe-CSdT98RPjfL-53" value="&amp;lt;&amp;lt;extends&amp;gt;&amp;gt;" style="edgeLabel;html=1;align=center;verticalAlign=middle;resizable=0;points=[];" vertex="1" connectable="0" parent="4fdTVYNe-CSdT98RPjfL-51">
          <mxGeometry x="-0.1259" y="-1" relative="1" as="geometry">
            <mxPoint as="offset" />
          </mxGeometry>
        </mxCell>
        <mxCell id="jB2Ku8zgTPf261uYhost-6" value="Job Seeker" style="shape=umlActor;verticalLabelPosition=bottom;verticalAlign=top;html=1;" parent="1" vertex="1">
          <mxGeometry x="480" y="320" width="30" height="60" as="geometry" />
        </mxCell>
        <mxCell id="4fdTVYNe-CSdT98RPjfL-39" style="rounded=0;orthogonalLoop=1;jettySize=auto;html=1;entryX=1;entryY=0.5;entryDx=0;entryDy=0;endArrow=none;startFill=0;" edge="1" parent="1" source="jB2Ku8zgTPf261uYhost-7" target="4fdTVYNe-CSdT98RPjfL-33">
          <mxGeometry relative="1" as="geometry" />
        </mxCell>
        <mxCell id="4fdTVYNe-CSdT98RPjfL-40" style="rounded=0;orthogonalLoop=1;jettySize=auto;html=1;entryX=1;entryY=0.5;entryDx=0;entryDy=0;endArrow=none;startFill=0;" edge="1" parent="1" source="jB2Ku8zgTPf261uYhost-7" target="4fdTVYNe-CSdT98RPjfL-34">
          <mxGeometry relative="1" as="geometry" />
        </mxCell>
        <mxCell id="4fdTVYNe-CSdT98RPjfL-41" style="rounded=0;orthogonalLoop=1;jettySize=auto;html=1;endArrow=none;startFill=0;" edge="1" parent="1" source="jB2Ku8zgTPf261uYhost-7" target="4fdTVYNe-CSdT98RPjfL-35">
          <mxGeometry relative="1" as="geometry" />
        </mxCell>
        <mxCell id="4fdTVYNe-CSdT98RPjfL-42" style="rounded=0;orthogonalLoop=1;jettySize=auto;html=1;entryX=1;entryY=0.5;entryDx=0;entryDy=0;endArrow=none;startFill=0;" edge="1" parent="1" source="jB2Ku8zgTPf261uYhost-7" target="4fdTVYNe-CSdT98RPjfL-36">
          <mxGeometry relative="1" as="geometry" />
        </mxCell>
        <mxCell id="4fdTVYNe-CSdT98RPjfL-43" style="rounded=0;orthogonalLoop=1;jettySize=auto;html=1;entryX=1;entryY=0.5;entryDx=0;entryDy=0;endArrow=none;startFill=0;" edge="1" parent="1" source="jB2Ku8zgTPf261uYhost-7" target="4fdTVYNe-CSdT98RPjfL-37">
          <mxGeometry relative="1" as="geometry" />
        </mxCell>
        <mxCell id="4fdTVYNe-CSdT98RPjfL-44" style="rounded=0;orthogonalLoop=1;jettySize=auto;html=1;entryX=1;entryY=0.5;entryDx=0;entryDy=0;endArrow=none;startFill=0;" edge="1" parent="1" source="jB2Ku8zgTPf261uYhost-7" target="4fdTVYNe-CSdT98RPjfL-38">
          <mxGeometry relative="1" as="geometry" />
        </mxCell>
        <mxCell id="4fdTVYNe-CSdT98RPjfL-52" style="rounded=0;orthogonalLoop=1;jettySize=auto;html=1;entryX=0;entryY=0.5;entryDx=0;entryDy=0;dashed=1;endArrow=block;endFill=0;" edge="1" parent="1" source="jB2Ku8zgTPf261uYhost-7" target="4fdTVYNe-CSdT98RPjfL-49">
          <mxGeometry relative="1" as="geometry" />
        </mxCell>
        <mxCell id="4fdTVYNe-CSdT98RPjfL-54" value="&amp;lt;&amp;lt;extends&amp;gt;&amp;gt;" style="edgeLabel;html=1;align=center;verticalAlign=middle;resizable=0;points=[];" vertex="1" connectable="0" parent="4fdTVYNe-CSdT98RPjfL-52">
          <mxGeometry x="-0.5313" y="2" relative="1" as="geometry">
            <mxPoint as="offset" />
          </mxGeometry>
        </mxCell>
        <mxCell id="jB2Ku8zgTPf261uYhost-7" value="Employer" style="shape=umlActor;verticalLabelPosition=bottom;verticalAlign=top;html=1;" parent="1" vertex="1">
          <mxGeometry x="480" y="810" width="30" height="60" as="geometry" />
        </mxCell>
        <mxCell id="4fdTVYNe-CSdT98RPjfL-56" style="rounded=0;orthogonalLoop=1;jettySize=auto;html=1;entryX=1;entryY=0.5;entryDx=0;entryDy=0;dashed=1;endArrow=block;endFill=0;" edge="1" parent="1" source="jB2Ku8zgTPf261uYhost-8" target="4fdTVYNe-CSdT98RPjfL-49">
          <mxGeometry relative="1" as="geometry" />
        </mxCell>
        <mxCell id="4fdTVYNe-CSdT98RPjfL-57" value="&amp;lt;&amp;lt;extends&amp;gt;&amp;gt;" style="edgeLabel;html=1;align=center;verticalAlign=middle;resizable=0;points=[];" vertex="1" connectable="0" parent="4fdTVYNe-CSdT98RPjfL-56">
          <mxGeometry x="-0.1455" y="1" relative="1" as="geometry">
            <mxPoint as="offset" />
          </mxGeometry>
        </mxCell>
        <mxCell id="4fdTVYNe-CSdT98RPjfL-64" style="rounded=0;orthogonalLoop=1;jettySize=auto;html=1;entryX=0;entryY=0.5;entryDx=0;entryDy=0;endArrow=none;startFill=0;" edge="1" parent="1" source="jB2Ku8zgTPf261uYhost-8" target="4fdTVYNe-CSdT98RPjfL-61">
          <mxGeometry relative="1" as="geometry" />
        </mxCell>
        <mxCell id="4fdTVYNe-CSdT98RPjfL-65" style="rounded=0;orthogonalLoop=1;jettySize=auto;html=1;entryX=0;entryY=0.5;entryDx=0;entryDy=0;endArrow=none;startFill=0;" edge="1" parent="1" source="jB2Ku8zgTPf261uYhost-8" target="4fdTVYNe-CSdT98RPjfL-62">
          <mxGeometry relative="1" as="geometry" />
        </mxCell>
        <mxCell id="4fdTVYNe-CSdT98RPjfL-66" style="rounded=0;orthogonalLoop=1;jettySize=auto;html=1;endArrow=none;startFill=0;" edge="1" parent="1" source="jB2Ku8zgTPf261uYhost-8" target="4fdTVYNe-CSdT98RPjfL-63">
          <mxGeometry relative="1" as="geometry" />
        </mxCell>
        <mxCell id="jB2Ku8zgTPf261uYhost-8" value="Manager" style="shape=umlActor;verticalLabelPosition=bottom;verticalAlign=top;html=1;" parent="1" vertex="1">
          <mxGeometry x="1128.64" y="310" width="30" height="60" as="geometry" />
        </mxCell>
        <mxCell id="jB2Ku8zgTPf261uYhost-10" value="&lt;code data-start=&quot;360&quot; data-end=&quot;386&quot;&gt;&lt;font face=&quot;Helvetica&quot;&gt;View/Search Jobs&lt;/font&gt;&lt;/code&gt;" style="rounded=0;whiteSpace=wrap;html=1;fontFamily=Helvetica;" parent="1" vertex="1">
          <mxGeometry x="730" y="180" width="120" height="60" as="geometry" />
        </mxCell>
        <mxCell id="4fdTVYNe-CSdT98RPjfL-99" style="rounded=0;orthogonalLoop=1;jettySize=auto;html=1;dashed=1;" edge="1" parent="1" source="jB2Ku8zgTPf261uYhost-11" target="jB2Ku8zgTPf261uYhost-10">
          <mxGeometry relative="1" as="geometry" />
        </mxCell>
        <mxCell id="4fdTVYNe-CSdT98RPjfL-100" value="&amp;lt;&amp;lt;extend&amp;gt;&amp;gt;" style="edgeLabel;html=1;align=center;verticalAlign=middle;resizable=0;points=[];" vertex="1" connectable="0" parent="4fdTVYNe-CSdT98RPjfL-99">
          <mxGeometry x="0.0876" relative="1" as="geometry">
            <mxPoint as="offset" />
          </mxGeometry>
        </mxCell>
        <mxCell id="jB2Ku8zgTPf261uYhost-11" value="&lt;code data-start=&quot;389&quot; data-end=&quot;408&quot;&gt;&lt;font face=&quot;Helvetica&quot;&gt;Read Public Posts&lt;/font&gt;&lt;/code&gt;" style="rounded=0;whiteSpace=wrap;html=1;fontFamily=Helvetica;" parent="1" vertex="1">
          <mxGeometry x="850" y="270" width="120" height="60" as="geometry" />
        </mxCell>
        <mxCell id="jB2Ku8zgTPf261uYhost-12" value="&lt;code data-start=&quot;411&quot; data-end=&quot;434&quot;&gt;&lt;font face=&quot;Helvetica&quot;&gt;View Company Profiles&lt;/font&gt;&lt;/code&gt;" style="rounded=0;whiteSpace=wrap;html=1;fontFamily=Helvetica;" parent="1" vertex="1">
          <mxGeometry x="750" y="345" width="120" height="60" as="geometry" />
        </mxCell>
        <mxCell id="jB2Ku8zgTPf261uYhost-32" value="&lt;b&gt;&lt;font style=&quot;font-size: 15px;&quot;&gt;User Account Management&lt;/font&gt;&lt;/b&gt;" style="rounded=0;whiteSpace=wrap;html=1;verticalAlign=top;fillColor=#6d8764;strokeColor=#3A5431;fontColor=#ffffff;" parent="1" vertex="1">
          <mxGeometry x="710" y="530" width="290" height="360" as="geometry" />
        </mxCell>
        <mxCell id="4fdTVYNe-CSdT98RPjfL-8" style="rounded=0;orthogonalLoop=1;jettySize=auto;html=1;endArrow=none;startFill=0;" edge="1" parent="1" source="jB2Ku8zgTPf261uYhost-33" target="4fdTVYNe-CSdT98RPjfL-2">
          <mxGeometry relative="1" as="geometry" />
        </mxCell>
        <mxCell id="4fdTVYNe-CSdT98RPjfL-9" style="rounded=0;orthogonalLoop=1;jettySize=auto;html=1;endArrow=none;startFill=0;" edge="1" parent="1" source="jB2Ku8zgTPf261uYhost-33" target="4fdTVYNe-CSdT98RPjfL-3">
          <mxGeometry relative="1" as="geometry" />
        </mxCell>
        <mxCell id="4fdTVYNe-CSdT98RPjfL-10" style="rounded=0;orthogonalLoop=1;jettySize=auto;html=1;entryX=0;entryY=0.5;entryDx=0;entryDy=0;endArrow=none;startFill=0;" edge="1" parent="1" source="jB2Ku8zgTPf261uYhost-33" target="4fdTVYNe-CSdT98RPjfL-4">
          <mxGeometry relative="1" as="geometry" />
        </mxCell>
        <mxCell id="4fdTVYNe-CSdT98RPjfL-11" style="rounded=0;orthogonalLoop=1;jettySize=auto;html=1;entryX=0;entryY=0.5;entryDx=0;entryDy=0;endArrow=none;endFill=1;startFill=0;" edge="1" parent="1" source="jB2Ku8zgTPf261uYhost-33" target="4fdTVYNe-CSdT98RPjfL-5">
          <mxGeometry relative="1" as="geometry" />
        </mxCell>
        <mxCell id="jB2Ku8zgTPf261uYhost-33" value="Authenticated User" style="shape=umlActor;verticalLabelPosition=bottom;verticalAlign=top;html=1;outlineConnect=0;" parent="1" vertex="1">
          <mxGeometry x="590" y="770" width="30" height="60" as="geometry" />
        </mxCell>
        <mxCell id="4fdTVYNe-CSdT98RPjfL-2" value="Logout" style="rounded=0;whiteSpace=wrap;html=1;" vertex="1" parent="1">
          <mxGeometry x="795" y="570" width="120" height="60" as="geometry" />
        </mxCell>
        <mxCell id="4fdTVYNe-CSdT98RPjfL-3" value="&lt;code data-end=&quot;567&quot; data-start=&quot;549&quot;&gt;&lt;font face=&quot;Helvetica&quot;&gt;Change/Recover Password&lt;/font&gt;&lt;/code&gt;" style="rounded=0;whiteSpace=wrap;html=1;" vertex="1" parent="1">
          <mxGeometry x="795" y="650" width="120" height="60" as="geometry" />
        </mxCell>
        <mxCell id="4fdTVYNe-CSdT98RPjfL-4" value="&lt;code data-end=&quot;604&quot; data-start=&quot;570&quot;&gt;&lt;font face=&quot;Helvetica&quot;&gt;Enable Two-Factor Authentication&lt;/font&gt;&lt;/code&gt;" style="rounded=0;whiteSpace=wrap;html=1;" vertex="1" parent="1">
          <mxGeometry x="795" y="730" width="120" height="60" as="geometry" />
        </mxCell>
        <mxCell id="4fdTVYNe-CSdT98RPjfL-5" value="&lt;code data-end=&quot;635&quot; data-start=&quot;607&quot;&gt;&lt;font face=&quot;Helvetica&quot;&gt;Update Profile Information&lt;/font&gt;&lt;/code&gt;" style="rounded=0;whiteSpace=wrap;html=1;" vertex="1" parent="1">
          <mxGeometry x="795" y="810" width="120" height="60" as="geometry" />
        </mxCell>
        <mxCell id="4fdTVYNe-CSdT98RPjfL-80" style="rounded=0;orthogonalLoop=1;jettySize=auto;html=1;dashed=1;" edge="1" parent="1" source="4fdTVYNe-CSdT98RPjfL-14" target="4fdTVYNe-CSdT98RPjfL-15">
          <mxGeometry relative="1" as="geometry" />
        </mxCell>
        <mxCell id="4fdTVYNe-CSdT98RPjfL-81" value="«include»" style="edgeLabel;html=1;align=center;verticalAlign=middle;resizable=0;points=[];" vertex="1" connectable="0" parent="4fdTVYNe-CSdT98RPjfL-80">
          <mxGeometry x="-0.1213" y="1" relative="1" as="geometry">
            <mxPoint as="offset" />
          </mxGeometry>
        </mxCell>
        <mxCell id="4fdTVYNe-CSdT98RPjfL-14" value="&lt;code data-end=&quot;803&quot; data-start=&quot;788&quot;&gt;&lt;font face=&quot;Helvetica&quot;&gt;Apply for Job&lt;/font&gt;&lt;/code&gt;" style="rounded=0;whiteSpace=wrap;html=1;" vertex="1" parent="1">
          <mxGeometry x="-20" y="160" width="120" height="60" as="geometry" />
        </mxCell>
        <mxCell id="4fdTVYNe-CSdT98RPjfL-15" value="&lt;code data-end=&quot;785&quot; data-start=&quot;759&quot;&gt;&lt;font face=&quot;Helvetica&quot;&gt;Create and Manage Resume&lt;/font&gt;&lt;/code&gt;" style="rounded=0;whiteSpace=wrap;html=1;" vertex="1" parent="1">
          <mxGeometry x="130" y="60" width="120" height="60" as="geometry" />
        </mxCell>
        <mxCell id="4fdTVYNe-CSdT98RPjfL-85" style="rounded=0;orthogonalLoop=1;jettySize=auto;html=1;dashed=1;" edge="1" parent="1" source="4fdTVYNe-CSdT98RPjfL-16" target="4fdTVYNe-CSdT98RPjfL-18">
          <mxGeometry relative="1" as="geometry" />
        </mxCell>
        <mxCell id="4fdTVYNe-CSdT98RPjfL-86" value="«include»" style="edgeLabel;html=1;align=center;verticalAlign=middle;resizable=0;points=[];" vertex="1" connectable="0" parent="4fdTVYNe-CSdT98RPjfL-85">
          <mxGeometry x="-0.5" relative="1" as="geometry">
            <mxPoint x="6" y="3" as="offset" />
          </mxGeometry>
        </mxCell>
        <mxCell id="4fdTVYNe-CSdT98RPjfL-16" value="&lt;code data-end=&quot;829&quot; data-start=&quot;806&quot;&gt;&lt;font face=&quot;Helvetica&quot;&gt;Save Job to Favorites&lt;/font&gt;&lt;/code&gt;" style="rounded=0;whiteSpace=wrap;html=1;" vertex="1" parent="1">
          <mxGeometry x="-20" y="290" width="120" height="60" as="geometry" />
        </mxCell>
        <mxCell id="4fdTVYNe-CSdT98RPjfL-83" style="rounded=0;orthogonalLoop=1;jettySize=auto;html=1;dashed=1;" edge="1" parent="1" source="4fdTVYNe-CSdT98RPjfL-17" target="4fdTVYNe-CSdT98RPjfL-14">
          <mxGeometry relative="1" as="geometry" />
        </mxCell>
        <mxCell id="4fdTVYNe-CSdT98RPjfL-84" value="«include»" style="edgeLabel;html=1;align=center;verticalAlign=middle;resizable=0;points=[];" vertex="1" connectable="0" parent="4fdTVYNe-CSdT98RPjfL-83">
          <mxGeometry x="-0.0543" relative="1" as="geometry">
            <mxPoint as="offset" />
          </mxGeometry>
        </mxCell>
        <mxCell id="4fdTVYNe-CSdT98RPjfL-17" value="&lt;code data-end=&quot;858&quot; data-start=&quot;832&quot;&gt;&lt;font face=&quot;Helvetica&quot;&gt;Track Application Status&lt;/font&gt;&lt;/code&gt;" style="rounded=0;whiteSpace=wrap;html=1;" vertex="1" parent="1">
          <mxGeometry x="110" y="250" width="120" height="60" as="geometry" />
        </mxCell>
        <mxCell id="4fdTVYNe-CSdT98RPjfL-18" value="&lt;code data-end=&quot;898&quot; data-start=&quot;861&quot;&gt;&lt;font face=&quot;Helvetica&quot;&gt;Receive Job Alerts Based on Filters&lt;/font&gt;&lt;/code&gt;" style="rounded=0;whiteSpace=wrap;html=1;" vertex="1" parent="1">
          <mxGeometry x="100" y="390" width="120" height="60" as="geometry" />
        </mxCell>
        <mxCell id="4fdTVYNe-CSdT98RPjfL-19" value="&lt;code data-end=&quot;919&quot; data-start=&quot;901&quot;&gt;&lt;font face=&quot;Helvetica&quot;&gt;Message Employer&lt;/font&gt;&lt;/code&gt;" style="rounded=0;whiteSpace=wrap;html=1;" vertex="1" parent="1">
          <mxGeometry x="20" y="460" width="120" height="60" as="geometry" />
        </mxCell>
        <mxCell id="4fdTVYNe-CSdT98RPjfL-20" value="&lt;font face=&quot;Helvetica&quot;&gt;Connect with Other Users&lt;/font&gt;" style="rounded=0;whiteSpace=wrap;html=1;" vertex="1" parent="1">
          <mxGeometry x="100" y="530" width="120" height="60" as="geometry" />
        </mxCell>
        <mxCell id="4fdTVYNe-CSdT98RPjfL-22" style="rounded=0;orthogonalLoop=1;jettySize=auto;html=1;entryX=1;entryY=0.5;entryDx=0;entryDy=0;endArrow=none;startFill=0;" edge="1" parent="1" source="jB2Ku8zgTPf261uYhost-6" target="4fdTVYNe-CSdT98RPjfL-15">
          <mxGeometry relative="1" as="geometry" />
        </mxCell>
        <mxCell id="4fdTVYNe-CSdT98RPjfL-33" value="&lt;code data-end=&quot;1042&quot; data-start=&quot;1024&quot;&gt;&lt;font face=&quot;Helvetica&quot;&gt;Post Job Listing&lt;/font&gt;&lt;/code&gt;" style="rounded=0;whiteSpace=wrap;html=1;" vertex="1" parent="1">
          <mxGeometry x="110" y="660" width="120" height="60" as="geometry" />
        </mxCell>
        <mxCell id="4fdTVYNe-CSdT98RPjfL-87" style="rounded=0;orthogonalLoop=1;jettySize=auto;html=1;entryX=0.5;entryY=1;entryDx=0;entryDy=0;dashed=1;" edge="1" parent="1" source="4fdTVYNe-CSdT98RPjfL-34" target="4fdTVYNe-CSdT98RPjfL-33">
          <mxGeometry relative="1" as="geometry" />
        </mxCell>
        <mxCell id="4fdTVYNe-CSdT98RPjfL-88" value="«include»" style="edgeLabel;html=1;align=center;verticalAlign=middle;resizable=0;points=[];" vertex="1" connectable="0" parent="4fdTVYNe-CSdT98RPjfL-87">
          <mxGeometry x="-0.0651" relative="1" as="geometry">
            <mxPoint as="offset" />
          </mxGeometry>
        </mxCell>
        <mxCell id="4fdTVYNe-CSdT98RPjfL-34" value="&lt;code data-end=&quot;1073&quot; data-start=&quot;1045&quot;&gt;&lt;font face=&quot;Helvetica&quot;&gt;Edit or Delete Job Listing&lt;/font&gt;&lt;/code&gt;" style="rounded=0;whiteSpace=wrap;html=1;" vertex="1" parent="1">
          <mxGeometry x="-20" y="750" width="120" height="60" as="geometry" />
        </mxCell>
        <mxCell id="4fdTVYNe-CSdT98RPjfL-93" style="rounded=0;orthogonalLoop=1;jettySize=auto;html=1;dashed=1;" edge="1" parent="1" source="4fdTVYNe-CSdT98RPjfL-35" target="4fdTVYNe-CSdT98RPjfL-33">
          <mxGeometry relative="1" as="geometry" />
        </mxCell>
        <mxCell id="4fdTVYNe-CSdT98RPjfL-94" value="«include»" style="edgeLabel;html=1;align=center;verticalAlign=middle;resizable=0;points=[];" vertex="1" connectable="0" parent="4fdTVYNe-CSdT98RPjfL-93">
          <mxGeometry x="0.0655" relative="1" as="geometry">
            <mxPoint as="offset" />
          </mxGeometry>
        </mxCell>
        <mxCell id="4fdTVYNe-CSdT98RPjfL-35" value="&lt;code data-end=&quot;1095&quot; data-start=&quot;1076&quot;&gt;&lt;font face=&quot;Helvetica&quot;&gt;View Applications&lt;/font&gt;&lt;/code&gt;" style="rounded=0;whiteSpace=wrap;html=1;" vertex="1" parent="1">
          <mxGeometry x="110" y="820" width="120" height="60" as="geometry" />
        </mxCell>
        <mxCell id="4fdTVYNe-CSdT98RPjfL-36" value="&lt;code data-end=&quot;1120&quot; data-start=&quot;1098&quot;&gt;&lt;font face=&quot;Helvetica&quot;&gt;Shortlist Candidates&lt;/font&gt;&lt;/code&gt;" style="rounded=0;whiteSpace=wrap;html=1;" vertex="1" parent="1">
          <mxGeometry x="-30" y="890" width="120" height="60" as="geometry" />
        </mxCell>
        <mxCell id="4fdTVYNe-CSdT98RPjfL-37" value="&lt;code data-end=&quot;1148&quot; data-start=&quot;1123&quot;&gt;&lt;font face=&quot;Helvetica&quot;&gt;Manage Employer Profile&lt;/font&gt;&lt;/code&gt;" style="rounded=0;whiteSpace=wrap;html=1;" vertex="1" parent="1">
          <mxGeometry x="90" y="1030" width="120" height="60" as="geometry" />
        </mxCell>
        <mxCell id="4fdTVYNe-CSdT98RPjfL-95" style="rounded=0;orthogonalLoop=1;jettySize=auto;html=1;entryX=0.5;entryY=1;entryDx=0;entryDy=0;dashed=1;" edge="1" parent="1" source="4fdTVYNe-CSdT98RPjfL-38" target="4fdTVYNe-CSdT98RPjfL-36">
          <mxGeometry relative="1" as="geometry" />
        </mxCell>
        <mxCell id="4fdTVYNe-CSdT98RPjfL-98" value="&amp;lt;&amp;lt;extend&amp;gt;&amp;gt;" style="edgeLabel;html=1;align=center;verticalAlign=middle;resizable=0;points=[];" vertex="1" connectable="0" parent="4fdTVYNe-CSdT98RPjfL-95">
          <mxGeometry x="-0.0445" relative="1" as="geometry">
            <mxPoint as="offset" />
          </mxGeometry>
        </mxCell>
        <mxCell id="4fdTVYNe-CSdT98RPjfL-96" style="rounded=0;orthogonalLoop=1;jettySize=auto;html=1;dashed=1;" edge="1" parent="1" source="4fdTVYNe-CSdT98RPjfL-38" target="4fdTVYNe-CSdT98RPjfL-35">
          <mxGeometry relative="1" as="geometry" />
        </mxCell>
        <mxCell id="4fdTVYNe-CSdT98RPjfL-97" value="&amp;lt;&amp;lt;extend&amp;gt;&amp;gt;" style="edgeLabel;html=1;align=center;verticalAlign=middle;resizable=0;points=[];" vertex="1" connectable="0" parent="4fdTVYNe-CSdT98RPjfL-96">
          <mxGeometry x="-0.0381" relative="1" as="geometry">
            <mxPoint as="offset" />
          </mxGeometry>
        </mxCell>
        <mxCell id="4fdTVYNe-CSdT98RPjfL-38" value="&lt;code data-end=&quot;1172&quot; data-start=&quot;1151&quot;&gt;&lt;font face=&quot;Helvetica&quot;&gt;Message Job Seekers&lt;/font&gt;&lt;/code&gt;" style="rounded=0;whiteSpace=wrap;html=1;" vertex="1" parent="1">
          <mxGeometry x="110" y="960" width="120" height="60" as="geometry" />
        </mxCell>
        <mxCell id="4fdTVYNe-CSdT98RPjfL-61" value="&lt;code data-end=&quot;1254&quot; data-start=&quot;1224&quot;&gt;&lt;font face=&quot;Helvetica&quot;&gt;Review and Approve Posts&lt;/font&gt;&lt;/code&gt;" style="rounded=0;whiteSpace=wrap;html=1;" vertex="1" parent="1">
          <mxGeometry x="1313.64" y="230" width="120" height="60" as="geometry" />
        </mxCell>
        <mxCell id="4fdTVYNe-CSdT98RPjfL-62" value="&lt;code data-end=&quot;1329&quot; data-start=&quot;1293&quot;&gt;&lt;font face=&quot;Helvetica&quot;&gt;Moderate Reported Users or Content&lt;/font&gt;&lt;/code&gt;" style="rounded=0;whiteSpace=wrap;html=1;" vertex="1" parent="1">
          <mxGeometry x="1313.64" y="310" width="120" height="60" as="geometry" />
        </mxCell>
        <mxCell id="4fdTVYNe-CSdT98RPjfL-63" value="&lt;code data-end=&quot;1364&quot; data-start=&quot;1332&quot;&gt;&lt;font face=&quot;Helvetica&quot;&gt;View Basic Platform Statistics&lt;/font&gt;&lt;/code&gt;" style="rounded=0;whiteSpace=wrap;html=1;" vertex="1" parent="1">
          <mxGeometry x="1313.64" y="390" width="120" height="60" as="geometry" />
        </mxCell>
        <mxCell id="4fdTVYNe-CSdT98RPjfL-68" value="&lt;code data-end=&quot;1460&quot; data-start=&quot;1425&quot;&gt;&lt;font face=&quot;Helvetica&quot;&gt;Manage Users&lt;/font&gt;&lt;/code&gt;" style="rounded=0;whiteSpace=wrap;html=1;" vertex="1" parent="1">
          <mxGeometry x="1313.64" y="580" width="120" height="60" as="geometry" />
        </mxCell>
        <mxCell id="4fdTVYNe-CSdT98RPjfL-69" value="View and Manage Sensitive Data (CVs, Messages)" style="rounded=0;whiteSpace=wrap;html=1;" vertex="1" parent="1">
          <mxGeometry x="1313.64" y="660" width="120" height="60" as="geometry" />
        </mxCell>
        <mxCell id="4fdTVYNe-CSdT98RPjfL-70" value="&lt;code data-end=&quot;1568&quot; data-start=&quot;1541&quot;&gt;&lt;font face=&quot;Helvetica&quot;&gt;Review Serious Violations&lt;/font&gt;&lt;/code&gt;" style="rounded=0;whiteSpace=wrap;html=1;" vertex="1" parent="1">
          <mxGeometry x="1313.64" y="740" width="120" height="60" as="geometry" />
        </mxCell>
        <mxCell id="4fdTVYNe-CSdT98RPjfL-71" value="&lt;code data-end=&quot;1606&quot; data-start=&quot;1571&quot;&gt;&lt;font face=&quot;Helvetica&quot;&gt;Manage System Backups and Restore&lt;/font&gt;&lt;/code&gt;" style="rounded=0;whiteSpace=wrap;html=1;" vertex="1" parent="1">
          <mxGeometry x="1313.64" y="820" width="120" height="60" as="geometry" />
        </mxCell>
        <mxCell id="4fdTVYNe-CSdT98RPjfL-72" value="&lt;code data-end=&quot;1677&quot; data-start=&quot;1641&quot;&gt;&lt;font face=&quot;Helvetica&quot;&gt;Access Advanced Analytics and Logs&lt;/font&gt;&lt;/code&gt;" style="rounded=0;whiteSpace=wrap;html=1;" vertex="1" parent="1">
          <mxGeometry x="1313.64" y="900" width="120" height="60" as="geometry" />
        </mxCell>
        <mxCell id="4fdTVYNe-CSdT98RPjfL-92" style="rounded=0;orthogonalLoop=1;jettySize=auto;html=1;endArrow=none;startFill=0;" edge="1" parent="1" source="4fdTVYNe-CSdT98RPjfL-91" target="jB2Ku8zgTPf261uYhost-1">
          <mxGeometry relative="1" as="geometry" />
        </mxCell>
        <mxCell id="4fdTVYNe-CSdT98RPjfL-91" value="Register/Login" style="rounded=0;whiteSpace=wrap;html=1;" vertex="1" parent="1">
          <mxGeometry x="750" y="430" width="120" height="60" as="geometry" />
        </mxCell>
      </root>
    </mxGraphModel>
  </diagram>
</mxfile>
